<svg width="130" height="130" viewBox="0 0 130 130" fill="none" xmlns="http://www.w3.org/2000/svg">
<g id="back-arrow-svgrepo-com 1" clip-path="url(#clip0_104_96)">
<g id="Group">
<path id="Vector" d="M127.217 106.681C126.101 106.681 125.078 106.043 124.639 104.995C124.318 104.235 116.277 86.1988 86.2135 82.6267C79.9513 81.8665 72.4513 81.4766 63.3431 81.4084V103.889C63.3431 104.927 62.7827 105.867 61.8616 106.365C60.9454 106.842 59.8489 106.774 58.9961 106.204L1.23782 67.3246C0.45809 66.8031 0 65.9259 0 65.0049C0 64.0741 0.45809 63.2261 1.23782 62.6803L59.0205 23.7963C59.8733 23.2066 60.96 23.1676 61.886 23.655C62.8119 24.152 63.3626 25.0926 63.3626 26.1014V47.0224C75.9259 48.6598 130 58.3772 130 103.913C130 105.234 129.069 106.389 127.763 106.652C127.583 106.681 127.393 106.681 127.217 106.681Z" fill="#A3A2A2"/>
</g>
</g>
<defs>
<clipPath id="clip0_104_96">
<rect width="130" height="130" fill="white"/>
</clipPath>
</defs>
</svg>
