<svg width="100" height="100" viewBox="0 0 100 100" fill="none" xmlns="http://www.w3.org/2000/svg">
<g id="calc">
<path id="Vector" d="M75 6.25C78.4519 6.25 81.25 9.04825 81.25 12.5V87.5C81.25 90.9519 78.4519 93.75 75 93.75H25C21.5482 93.75 18.75 90.9519 18.75 87.5V12.5C18.75 9.04825 21.5482 6.25 25 6.25H75ZM25 0C18.0964 0 12.5 5.59644 12.5 12.5V87.5C12.5 94.4037 18.0964 100 25 100H75C81.9037 100 87.5 94.4037 87.5 87.5V12.5C87.5 5.59644 81.9037 0 75 0H25Z" fill="#A3A2A2"/>
<path id="Vector_2" d="M25 15.625C25 13.8991 26.3991 12.5 28.125 12.5H71.875C73.6006 12.5 75 13.8991 75 15.625V28.125C75 29.8509 73.6006 31.25 71.875 31.25H28.125C26.3991 31.25 25 29.8509 25 28.125V15.625Z" fill="#A3A2A2"/>
<path id="Vector_3" d="M25 40.625C25 38.8991 26.3991 37.5 28.125 37.5H34.375C36.1009 37.5 37.5 38.8991 37.5 40.625V46.875C37.5 48.6009 36.1009 50 34.375 50H28.125C26.3991 50 25 48.6009 25 46.875V40.625Z" fill="#A3A2A2"/>
<path id="Vector_4" d="M25 59.375C25 57.6491 26.3991 56.25 28.125 56.25H34.375C36.1009 56.25 37.5 57.6491 37.5 59.375V65.625C37.5 67.3506 36.1009 68.75 34.375 68.75H28.125C26.3991 68.75 25 67.3506 25 65.625V59.375Z" fill="#A3A2A2"/>
<path id="Vector_5" d="M25 78.125C25 76.3994 26.3991 75 28.125 75H34.375C36.1009 75 37.5 76.3994 37.5 78.125V84.375C37.5 86.1006 36.1009 87.5 34.375 87.5H28.125C26.3991 87.5 25 86.1006 25 84.375V78.125Z" fill="#A3A2A2"/>
<path id="Vector_6" d="M43.75 40.625C43.75 38.8991 45.1491 37.5 46.875 37.5H53.125C54.8509 37.5 56.25 38.8991 56.25 40.625V46.875C56.25 48.6009 54.8509 50 53.125 50H46.875C45.1491 50 43.75 48.6009 43.75 46.875V40.625Z" fill="#A3A2A2"/>
<path id="Vector_7" d="M43.75 59.375C43.75 57.6491 45.1491 56.25 46.875 56.25H53.125C54.8509 56.25 56.25 57.6491 56.25 59.375V65.625C56.25 67.3506 54.8509 68.75 53.125 68.75H46.875C45.1491 68.75 43.75 67.3506 43.75 65.625V59.375Z" fill="#A3A2A2"/>
<path id="Vector_8" d="M43.75 78.125C43.75 76.3994 45.1491 75 46.875 75H53.125C54.8509 75 56.25 76.3994 56.25 78.125V84.375C56.25 86.1006 54.8509 87.5 53.125 87.5H46.875C45.1491 87.5 43.75 86.1006 43.75 84.375V78.125Z" fill="#A3A2A2"/>
<path id="Vector_9" d="M62.5 40.625C62.5 38.8991 63.8994 37.5 65.625 37.5H71.875C73.6006 37.5 75 38.8991 75 40.625V46.875C75 48.6009 73.6006 50 71.875 50H65.625C63.8994 50 62.5 48.6009 62.5 46.875V40.625Z" fill="#A3A2A2"/>
<path id="Vector_10" d="M62.5 59.375C62.5 57.6491 63.8994 56.25 65.625 56.25H71.875C73.6006 56.25 75 57.6491 75 59.375V84.375C75 86.1006 73.6006 87.5 71.875 87.5H65.625C63.8994 87.5 62.5 86.1006 62.5 84.375V59.375Z" fill="#A3A2A2"/>
</g>
</svg>
