<svg width="74" height="74" viewBox="0 0 74 74" fill="none" xmlns="http://www.w3.org/2000/svg">
<g id="Frame">
<path id="Vector" d="M2.3125 45.7876C3.58966 45.7876 4.625 46.823 4.625 48.1V59.6625C4.625 62.2169 6.6957 64.2875 9.25 64.2875H64.75C67.3044 64.2875 69.375 62.2169 69.375 59.6625V48.1C69.375 46.823 70.4105 45.7876 71.6875 45.7876C72.9645 45.7876 74 46.823 74 48.1V59.6625C74 64.7713 69.8588 68.9125 64.75 68.9125H9.25C4.14137 68.9125 0 64.7713 0 59.6625V48.1C0 46.823 1.03534 45.7876 2.3125 45.7876Z" fill="black"/>
<path id="Vector_2" d="M35.3648 54.8229C36.2679 55.7257 37.7321 55.7257 38.6352 54.8229L52.5104 40.9477C53.4132 40.0446 53.4132 38.5804 52.5104 37.6773C51.6071 36.7742 50.1429 36.7742 49.2396 37.6773L39.3125 47.6047V6.9375C39.3125 5.66035 38.2772 4.625 37 4.625C35.7229 4.625 34.6875 5.66035 34.6875 6.9375V47.6047L24.7602 37.6773C23.8571 36.7742 22.3929 36.7742 21.4898 37.6773C20.5867 38.5804 20.5867 40.0446 21.4898 40.9477L35.3648 54.8229Z" fill="black"/>
</g>
</svg>
