<svg width="100" height="100" viewBox="0 0 100 100" fill="none" xmlns="http://www.w3.org/2000/svg">
<g id="Frame" clip-path="url(#clip0_99_53)">
<path id="Vector" d="M58.7791 6.56493C56.1991 -2.18831 43.8009 -2.18831 41.2209 6.56493L40.5952 8.68768C38.9467 14.2806 32.5584 16.9267 27.438 14.1376L25.4946 13.079C17.4807 8.71387 8.71387 17.4808 13.079 25.4946L14.1376 27.438C16.9267 32.5584 14.2806 38.9467 8.68768 40.5952L6.56493 41.2209C-2.18831 43.8009 -2.18831 56.1991 6.56493 58.7791L8.68768 59.4048C14.2806 61.0533 16.9267 67.4412 14.1376 72.5619L13.079 74.5056C8.71387 82.5194 17.4807 91.2862 25.4946 86.9212L27.438 85.8625C32.5584 83.0731 38.9467 85.7194 40.5952 91.3125L41.2209 93.435C43.8009 102.188 56.1991 102.188 58.7791 93.435L59.4048 91.3125C61.0533 85.7194 67.4412 83.0731 72.5619 85.8625L74.5056 86.9212C82.5194 91.2862 91.2862 82.5194 86.9212 74.5056L85.8625 72.5619C83.0731 67.4412 85.7194 61.0533 91.3125 59.4048L93.435 58.7791C102.188 56.1991 102.188 43.8009 93.435 41.2209L91.3125 40.5952C85.7194 38.9467 83.0731 32.5584 85.8625 27.438L86.9212 25.4946C91.2862 17.4807 82.5194 8.71387 74.5056 13.079L72.5619 14.1376C67.4412 16.9267 61.0533 14.2806 59.4048 8.68768L58.7791 6.56493ZM50 68.305C39.8904 68.305 31.6949 60.1096 31.6949 50C31.6949 39.8904 39.8904 31.6949 50 31.6949C60.1096 31.6949 68.305 39.8904 68.305 50C68.305 60.1096 60.1096 68.305 50 68.305Z" fill="#A3A2A2"/>
</g>
<defs>
<clipPath id="clip0_99_53">
<rect width="100" height="100" fill="white"/>
</clipPath>
</defs>
</svg>
