<svg width="75" height="75" viewBox="0 0 75 75" fill="none" xmlns="http://www.w3.org/2000/svg">
<g id="instagram">
<path id="instagram_2" d="M37.5035 0C27.319 0 26.0409 0.0445324 22.0409 0.226566C18.0486 0.40938 15.3236 1.04142 12.9392 1.96877C10.4728 2.92659 8.38056 4.20786 6.29616 6.29303C4.2102 8.37743 2.92894 10.4696 1.96799 12.9353C1.03829 15.3205 0.405473 18.0463 0.225783 22.0369C0.0468751 26.037 0 27.3159 0 37.5004C0 47.6849 0.0453137 48.9591 0.226566 52.9591C0.410161 56.9514 1.0422 59.6764 1.96877 62.0608C2.92737 64.5272 4.20864 66.6194 6.29382 68.7038C8.37743 70.7898 10.4696 72.0742 12.9345 73.032C15.3205 73.9594 18.0463 74.5914 22.0377 74.7742C26.0378 74.9562 27.3151 75.0008 37.4988 75.0008C47.6841 75.0008 48.9583 74.9562 52.9584 74.7742C56.9506 74.5914 59.6787 73.9594 62.0647 73.032C64.5304 72.0742 66.6194 70.7898 68.7031 68.7038C70.789 66.6194 72.0703 64.5272 73.0312 62.0616C73.9531 59.6764 74.5859 56.9506 74.7734 52.9599C74.9531 48.9599 75 47.6849 75 37.5004C75 27.3159 74.9531 26.0378 74.7734 22.0377C74.5859 18.0455 73.9531 15.3205 73.0312 12.9361C72.0703 10.4696 70.789 8.37743 68.7031 6.29303C66.6171 4.20708 64.5311 2.92581 62.0624 1.96877C59.6717 1.04142 56.9451 0.40938 52.9529 0.226566C48.9529 0.0445324 47.6794 0 37.4918 0H37.5035ZM34.1394 6.75788C35.1379 6.75632 36.2519 6.75788 37.5035 6.75788C47.5161 6.75788 48.7029 6.79382 52.6568 6.97351C56.3131 7.1407 58.2975 7.75164 59.6194 8.26493C61.3694 8.94462 62.6171 9.75713 63.9288 11.0696C65.2413 12.3822 66.0538 13.6322 66.7351 15.3822C67.2484 16.7025 67.8601 18.6869 68.0265 22.3432C68.2062 26.2964 68.2452 27.4839 68.2452 37.4918C68.2452 47.4997 68.2062 48.6872 68.0265 52.6404C67.8593 56.2967 67.2484 58.2811 66.7351 59.6014C66.0554 61.3514 65.2413 62.5975 63.9288 63.9093C62.6163 65.2218 61.3702 66.0343 59.6194 66.714C58.299 67.2296 56.3131 67.839 52.6568 68.0062C48.7036 68.1859 47.5161 68.2249 37.5035 68.2249C27.4901 68.2249 26.3034 68.1859 22.3502 68.0062C18.6939 67.8374 16.7095 67.2265 15.3869 66.7132C13.6369 66.0335 12.3868 65.221 11.0743 63.9085C9.76182 62.596 8.94931 61.3491 8.26805 59.5983C7.75477 58.278 7.14304 56.2936 6.97663 52.6373C6.79695 48.6841 6.76101 47.4966 6.76101 37.4824C6.76101 27.4683 6.79695 26.287 6.97663 22.3338C7.14382 18.6775 7.75477 16.6931 8.26805 15.3713C8.94775 13.6212 9.76182 12.3712 11.0743 11.0587C12.3868 9.74619 13.6369 8.93369 15.3869 8.25243C16.7088 7.7368 18.6939 7.12742 22.3502 6.95945C25.8096 6.8032 27.1503 6.75632 34.1394 6.74851V6.75788ZM57.5209 12.9845C55.0365 12.9845 53.0209 14.9978 53.0209 17.483C53.0209 19.9674 55.0365 21.983 57.5209 21.983C60.0053 21.983 62.021 19.9674 62.021 17.483C62.021 14.9986 60.0053 12.9829 57.5209 12.9829V12.9845ZM37.5035 18.2424C26.8682 18.2424 18.2455 26.8651 18.2455 37.5004C18.2455 48.1357 26.8682 56.7545 37.5035 56.7545C48.1388 56.7545 56.7584 48.1357 56.7584 37.5004C56.7584 26.8651 48.138 18.2424 37.5027 18.2424H37.5035ZM37.5035 25.0003C44.4067 25.0003 50.0036 30.5964 50.0036 37.5004C50.0036 44.4036 44.4067 50.0005 37.5035 50.0005C30.5995 50.0005 25.0034 44.4036 25.0034 37.5004C25.0034 30.5964 30.5995 25.0003 37.5035 25.0003Z" fill="url(#paint0_linear_3_124)"/>
</g>
<defs>
<linearGradient id="paint0_linear_3_124" x1="37.5" y1="0" x2="37.5" y2="75.0008" gradientUnits="userSpaceOnUse">
<stop stop-color="#CB0505"/>
<stop offset="0.255208" stop-color="#0023DB"/>
<stop offset="0.458333" stop-color="#B5B812"/>
<stop offset="0.645833" stop-color="#12B823"/>
<stop offset="0.864583" stop-color="#B87612"/>
<stop offset="0.979167" stop-color="#B8129D"/>
</linearGradient>
</defs>
</svg>
