<svg width="75" height="75" viewBox="0 0 75 75" fill="none" xmlns="http://www.w3.org/2000/svg">
<g id="telegram">
<path id="Subtract" d="M75 37.5C75 58.2107 58.2107 75 37.5 75C16.7893 75 0 58.2107 0 37.5C0 16.7893 16.7893 0 37.5 0C58.2107 0 75 16.7893 75 37.5ZM38.844 27.6843C35.1966 29.2014 27.9069 32.3414 16.9749 37.1043C15.1997 37.8102 14.2697 38.5008 14.1851 39.1761C14.042 40.3173 15.4712 40.7667 17.4173 41.3786C17.682 41.4619 17.9563 41.5481 18.2375 41.6395C20.1522 42.2619 22.7278 42.9901 24.0667 43.019C25.2813 43.0452 26.6368 42.5445 28.1334 41.5168C38.3476 34.622 43.6201 31.1371 43.9512 31.0619C44.1847 31.0089 44.5083 30.9423 44.7276 31.1372C44.9468 31.3321 44.9253 31.7012 44.9021 31.8002C44.7605 32.4037 39.1506 37.6192 36.2474 40.3182C35.3424 41.1596 34.7004 41.7564 34.5692 41.8927C34.2752 42.1981 33.9756 42.4869 33.6876 42.7645C31.9088 44.4793 30.5749 45.7652 33.7615 47.8651C35.2928 48.8742 36.5182 49.7087 37.7407 50.5412C39.0757 51.4504 40.4073 52.3572 42.1302 53.4866C42.5692 53.7743 42.9884 54.0732 43.3967 54.3642C44.9504 55.4719 46.3463 56.467 48.0708 56.3083C49.0728 56.2161 50.1079 55.2739 50.6335 52.4637C51.8759 45.8224 54.3178 31.4328 54.8821 25.5032C54.9316 24.9837 54.8694 24.3188 54.8194 24.027C54.7695 23.7351 54.6651 23.3193 54.2857 23.0114C53.8364 22.6469 53.1428 22.57 52.8326 22.5755C51.4221 22.6003 49.2582 23.3527 38.844 27.6843Z" fill="#4B66C5"/>
</g>
</svg>
