<svg width="87" height="75" viewBox="0 0 87 75" fill="none" xmlns="http://www.w3.org/2000/svg">
<g id="twitter">
<path id="twitter_2" d="M23.5594 68.9375C51.8607 68.9375 67.3469 45.4862 67.3469 25.1837C67.3469 24.5239 67.3469 23.8641 67.3169 23.2044C70.3181 21.0452 72.9292 18.3162 75 15.2273C72.2389 16.4569 69.2677 17.2666 66.1465 17.6564C69.3277 15.7671 71.7587 12.7382 72.9292 9.13958C69.958 10.9089 66.6567 12.1685 63.1453 12.8582C60.3241 9.85931 56.3325 8 51.9208 8C43.4274 8 36.5246 14.8975 36.5246 23.3843C36.5246 24.5839 36.6747 25.7534 36.9148 26.893C24.1297 26.2633 12.7851 20.1155 5.19208 10.819C3.87155 13.0981 3.12125 15.7371 3.12125 18.5561C3.12125 23.8941 5.85234 28.6024 9.96399 31.3614C7.44298 31.2714 5.07203 30.5817 3.0012 29.4421C3.0012 29.5021 3.0012 29.562 3.0012 29.652C3.0012 37.0893 8.31332 43.327 15.3361 44.7364C14.0456 45.0963 12.6951 45.2762 11.2845 45.2762C10.2941 45.2762 9.33373 45.1863 8.40336 45.0063C10.3541 51.1241 16.0564 55.5624 22.7791 55.6824C17.497 59.8209 10.8643 62.28 3.66147 62.28C2.43097 62.28 1.20048 62.22 0 62.07C6.78271 66.3884 14.886 68.9375 23.5594 68.9375Z" fill="#0085FF"/>
</g>
</svg>
